<svg viewBox="0 0 111 15" xmlns="http://www.w3.org/2000/svg"><path d="M2.5.5h106c0 1 1 2 2 2v10c-1 0-2 1-2 2H2.5c0-1-1-2-2-2v-10c1 0 2-1 2-2z" fill="#fff" stroke="#000"/><circle cx="5.5" cy="7.5" r="1"/><circle cx="5.5" cy="7.5" fill="none" stroke="#ccc" stroke-width=".25" r="1.8"/><circle cx="105.5" cy="7.5" r="1"/><circle cx="105.5" cy="7.5" r="1.8" fill="none" stroke="#ccc" stroke-width=".25"/><path d="M14.433 3.45a4.77 4.77 0 00-1.252.157 4.381 4.381 0 00-1.06.43 4.044 4.044 0 00-1.885 2.447v.002a4.007 4.007 0 00-.131 1.022c0 .606.109 1.165.332 1.67l.002.002c.225.498.54.93.941 1.287h.002a4.31 4.31 0 001.436.828h.002v.002a5.592 5.592 0 001.828.285 5.6 5.6 0 00.978-.086c.327-.054.629-.132.903-.238l.076-.031.504-1.285-.324-.206-.108.122c-.123.138-.26.263-.412.373a2.67 2.67 0 01-1.566.506c-.526 0-.978-.093-1.362-.27h-.002a2.72 2.72 0 01-.959-.744 3.257 3.257 0 01-.584-1.13 4.96 4.96 0 01-.2-1.435c0-.463.07-.87.206-1.222a2.52 2.52 0 01.567-.893 2.43 2.43 0 01.875-.55 3.16 3.16 0 011.136-.198c.435 0 .826.071 1.18.21h.002a2.9 2.9 0 01.92.563l.09.084.322-.142-.06-.166-.385-1.047-.082-.03a5.7 5.7 0 00-1.93-.318zm7.237 0a3.95 3.95 0 00-1.137.157 3.738 3.738 0 00-.965.434 3.737 3.737 0 00-.773.664 4.09 4.09 0 00-.568.83v.002a4.344 4.344 0 00-.47 1.97c0 .606.105 1.164.317 1.669a3.805 3.805 0 002.217 2.117v.002a4.76 4.76 0 001.676.287c.401 0 .779-.052 1.13-.158.35-.102.672-.244.962-.428.291-.186.552-.406.779-.658v-.002c.225-.254.415-.53.568-.828v-.002a4.06 4.06 0 00.354-.95c.08-.333.12-.673.12-1.017a4.25 4.25 0 00-.316-1.662c-.21-.5-.506-.933-.882-1.291a3.926 3.926 0 00-1.338-.838h-.002a4.574 4.574 0 00-1.672-.299zm0 .845c.458 0 .847.09 1.178.266h.002c.339.174.619.416.845.73.228.312.4.686.516 1.125h.002v.002c.12.437.18.914.18 1.434 0 .465-.061.877-.182 1.236a2.603 2.603 0 01-.506.898v.002a2.087 2.087 0 01-.756.555 2.43 2.43 0 01-.982.193c-.458 0-.848-.09-1.182-.265a2.45 2.45 0 01-.847-.74 3.397 3.397 0 01-.516-1.131 5.645 5.645 0 01-.178-1.442c0-.466.063-.875.184-1.23.121-.358.288-.654.498-.893l.002-.002c.214-.24.466-.42.76-.545h.002c.294-.128.617-.193.98-.193zm7.447-.783c-.363 0-.667.018-.914.054l.002-.002c-.224.03-.4.047-.521.047h-.254a3.293 3.293 0 01-.2-.015h-.001l-.426-.041v.255l.008.026c.017.062.034.148.05.254l.002.002v.004c.02.096.033.222.043.377l.002.002v.002c.014.154.023.342.03.562v.004c.01.215.015.469.015.762v3.39c0 .297-.005.553-.015.768v.002c-.007.216-.016.404-.03.559v.002l-.002.002c-.01.154-.024.28-.043.377v.002l-.002.003a2.263 2.263 0 01-.05.249l-.008.025v.236h1.627v-.236l-.006-.025a3.077 3.077 0 01-.059-.254 5.414 5.414 0 01-.045-.377v-.004a32.33 32.33 0 01-.03-.559v-.002c-.008-.22-.01-.475-.01-.767v-.96c.03.004.062.01.093.012h.002a4.494 4.494 0 00.563.006h.007l.131-.012 1.782 2.51c.07.1.132.203.183.305l.002.002.002.004a.76.76 0 01.082.199l.026.158h1.855v-.344l-.125-.043a.814.814 0 01-.16-.076l-.004-.002-.002-.002a1.841 1.841 0 01-.182-.148 3.969 3.969 0 01-.205-.223l-.002-.004a5.792 5.792 0 01-.24-.32l-1.71-2.404c.135-.075.275-.145.394-.24h.002V7.61c.176-.146.328-.313.453-.501v-.002c.128-.19.227-.4.295-.627v-.002c.071-.235.107-.486.107-.752 0-.342-.065-.655-.195-.932a1.97 1.97 0 00-.535-.709 2.348 2.348 0 00-.803-.43 3.185 3.185 0 00-.979-.144zm-.13.732c.213 0 .39.038.539.108h.004c.15.068.269.162.365.287v.002l.002.002c.1.123.177.277.23.468.054.193.082.41.082.657 0 .303-.04.562-.115.777-.076.214-.18.387-.312.525v.002a1.209 1.209 0 01-.473.309 1.93 1.93 0 01-.65.105 4.2 4.2 0 01-.268-.011c-.038-.004-.074-.012-.111-.018v-3.14c.052-.014.087-.026.166-.04a3.6 3.6 0 01.54-.033zm7.243-.732c-.363 0-.667.018-.914.054l.002-.002c-.224.03-.4.047-.521.047h-.254a3.293 3.293 0 01-.2-.015h-.001l-.426-.041v.255l.008.026c.017.062.034.148.05.254l.003.002v.004c.018.096.032.222.042.377l.002.002v.002c.014.154.023.342.03.562v.004c.01.215.015.469.015.762v3.39c0 .297-.005.553-.015.768v.002c-.007.216-.016.404-.03.559v.002l-.002.002c-.01.154-.024.28-.042.377v.002l-.002.003a2.263 2.263 0 01-.051.249l-.008.025v.236h1.627v-.236l-.006-.025a3.077 3.077 0 01-.059-.254 5.414 5.414 0 01-.045-.377v-.004a32.33 32.33 0 01-.03-.559v-.002c-.008-.22-.01-.475-.01-.767v-.96c.03.004.062.01.093.012h.002a4.494 4.494 0 00.563.006h.007l.131-.012 1.782 2.51c.07.1.132.203.183.305l.002.002.002.004a.76.76 0 01.082.199l.026.158h1.855v-.344l-.125-.043a.814.814 0 01-.16-.076l-.004-.002-.002-.002a1.841 1.841 0 01-.182-.148 3.969 3.969 0 01-.205-.223l-.002-.004a5.852 5.852 0 01-.238-.32h-.002l-1.71-2.404c.135-.075.275-.145.394-.24h.002V7.61c.176-.146.328-.313.453-.501v-.002c.128-.19.227-.4.295-.627v-.002c.071-.235.107-.486.107-.752 0-.342-.063-.655-.193-.932l-.002-.002a1.975 1.975 0 00-.535-.707 2.348 2.348 0 00-.803-.43 3.185 3.185 0 00-.979-.144zm-.13.732c.213 0 .39.038.539.108h.004c.15.068.269.162.365.287v.002l.002.002c.1.123.177.277.23.468.054.193.082.41.082.657 0 .303-.04.562-.115.777-.076.214-.18.387-.312.525v.002a1.209 1.209 0 01-.473.309 1.93 1.93 0 01-.65.105 4.2 4.2 0 01-.268-.011c-.038-.004-.074-.012-.111-.018v-3.14c.052-.014.087-.026.166-.04a3.6 3.6 0 01.54-.033zm4.884-.67v.237l.007.025c.018.063.035.145.051.248.016.1.033.232.047.393.014.154.023.342.03.562.006.216.011.472.011.766v3.39c0 .294-.005.55-.012.77a10.18 10.18 0 01-.029.558 5.15 5.15 0 01-.047.387 2.263 2.263 0 01-.05.248l-.008.026v.236h1.623v-.236l-.008-.026a3.124 3.124 0 01-.057-.248c-.016-.1-.033-.23-.047-.387l.002.004c-.01-.157-.02-.345-.03-.562v-.002c-.008-.22-.013-.475-.013-.768v-3.39c0-.293.005-.547.012-.762v-.004c.01-.22.021-.41.031-.566l-.002.003c.014-.16.031-.291.047-.392.02-.1.039-.184.057-.248l.008-.026v-.236zm7.183-.142l-.328.062a4.342 4.342 0 01-.488.04c-.252.01-.556.018-.912.025l-1.18.01c-.427.003-.857.005-1.291.005h-.188v.237l.006.025a2.2 2.2 0 01.053.248v.004l.002.002c.02.098.035.228.049.387.013.155.024.342.031.562.007.216.01.472.01.766v3.39c0 .294-.003.55-.01.77-.007.216-.018.403-.031.559a3.82 3.82 0 01-.049.38l-.002.002v.004a2.202 2.202 0 01-.053.248l-.006.026v.236h2.606c.08.003.167.006.264.006.1.003.207.006.318.006l.322.01a14.915 14.915 0 01.46.02l.171.015.234-1.307-.287.078c-.239.064-.507.12-.8.168h-.002c-.251.044-.547.083-.887.118-.28.028-.596.038-.922.042v-2.87c.17.003.34.006.523.02l.002.003h.002c.252.017.482.036.694.06h.002c.249.028.492.057.73.088l.172.024.256-1.194-.271.041a9.567 9.567 0 01-.612.073 20.643 20.643 0 01-1.498.076v-2.47c.067-.005.135-.007.201-.01h.002a9.55 9.55 0 01.326-.016h.006a5.295 5.295 0 01.922.02h.004c.188.016.345.036.471.056.148.023.275.05.38.078l.169.045zm4.343.018c-.401 0-.782.051-1.138.157-.349.102-.67.247-.963.434h-.002a3.737 3.737 0 00-.773.664 4.09 4.09 0 00-.569.83v.002c-.152.302-.268.62-.347.953-.08.334-.121.673-.121 1.018 0 .605.104 1.163.316 1.668h.002a3.8 3.8 0 00.88 1.287c.377.358.824.634 1.335.83v.002h.002a4.76 4.76 0 001.676.287c.4 0 .778-.052 1.13-.158.35-.102.67-.244.96-.428.291-.186.552-.406.779-.658v-.002c.225-.254.415-.53.568-.828v-.002a4.11 4.11 0 00.356-.95c.08-.333.119-.673.119-1.017a4.25 4.25 0 00-.317-1.662c-.21-.5-.506-.933-.882-1.291a3.926 3.926 0 00-1.338-.838h-.002a4.564 4.564 0 00-1.67-.299zm0 .845c.458 0 .846.09 1.177.266h.002c.338.174.619.416.845.73.228.312.401.686.518 1.125v.002c.12.437.181.914.181 1.434 0 .465-.062.877-.183 1.236a2.6 2.6 0 01-.504.898v.002h-.002a2.087 2.087 0 01-.756.555 2.424 2.424 0 01-.98.193c-.457 0-.848-.09-1.182-.265h-.002a2.451 2.451 0 01-.846-.74 3.4 3.4 0 01-.517-1.131 5.647 5.647 0 01-.176-1.442c0-.466.061-.875.182-1.23.121-.358.29-.654.5-.893.214-.24.465-.422.76-.547h.001c.294-.128.62-.193.983-.193zm9.486-.845a4.77 4.77 0 00-1.252.157 4.381 4.381 0 00-1.06.43 4.044 4.044 0 00-1.886 2.447v.002a4.05 4.05 0 00-.13 1.022c0 .605.106 1.163.322 1.668.215.499.519.93.91 1.289a4.18 4.18 0 001.408.83 5.356 5.356 0 001.793.287c.29 0 .56-.021.815-.064a4.18 4.18 0 001.337-.442v-.002c.192-.105.37-.218.534-.342l.006-.006.005-.003a.38.38 0 00.118-.21.667.667 0 00.02-.156v-.214c0-.238.002-.446.009-.624.007-.18.018-.336.031-.466.014-.132.029-.243.045-.334.02-.096.04-.177.059-.243l.006-.025v-.236h-1.627v.238l.007.027a2.378 2.378 0 01.102.563h.002c.013.122.023.271.03.445.006.174.01.382.01.623v.203c0-.023.002.003-.05.055a.844.844 0 01-.236.147h-.002l-.002.002c-.116.048-.263.09-.443.127a3.165 3.165 0 01-.616.054c-.526 0-.977-.09-1.36-.263h-.003a2.694 2.694 0 01-.959-.735 3.213 3.213 0 01-.584-1.119 4.852 4.852 0 01-.201-1.424c0-.463.07-.87.207-1.222a2.52 2.52 0 01.566-.893 2.44 2.44 0 01.875-.55 3.17 3.17 0 011.137-.198c.213 0 .423.022.629.064h.004a3.513 3.513 0 011.14.426c.168.099.315.204.44.317l.096.085.306-.154-.441-1.203-.082-.031a5.167 5.167 0 00-.47-.147v.002a5.264 5.264 0 00-.505-.107 5.302 5.302 0 00-.53-.07h-.005a5.323 5.323 0 00-.525-.028zm6.299.062c-.364 0-.665.018-.912.054l.002-.002c-.224.03-.4.047-.522.047h-.256a3.32 3.32 0 01-.197-.015h-.002l-.426-.041v.255l.006.026c.018.062.037.148.053.254v.002l.002.004c.019.096.033.222.043.377v.004c.014.154.024.342.031.562v.004c.01.215.016.469.016.762v3.39c0 .297-.005.553-.016.768v.002c-.007.216-.017.404-.03.559v.004c-.011.154-.025.28-.044.377l-.002.002v.003a2.202 2.202 0 01-.053.249l-.006.025v.236h1.627v-.236l-.007-.025a3.124 3.124 0 01-.057-.249 5.473 5.473 0 01-.045-.382v-.004a32.33 32.33 0 01-.031-.559v-.002c-.007-.22-.01-.475-.01-.767v-.96c.031.004.063.01.094.012a4.55 4.55 0 00.564.006h.008l.13-.012 1.782 2.51c.071.1.133.203.184.305l.002.002.002.004a.76.76 0 01.082.199l.025.158h1.856v-.344l-.127-.043a.8.8 0 01-.159-.076l-.003-.002-.002-.002a1.841 1.841 0 01-.182-.148 3.969 3.969 0 01-.205-.223l-.002-.004a5.791 5.791 0 01-.24-.32l-1.711-2.405c.136-.074.276-.144.394-.24l.002-.002a2.24 2.24 0 00.451-.502l.002-.002c.129-.189.228-.399.295-.627v-.002a2.55 2.55 0 00.106-.752c0-.341-.063-.654-.194-.931a1.97 1.97 0 00-.535-.71 2.348 2.348 0 00-.802-.429 3.197 3.197 0 00-.98-.144zm-.129.732c.214 0 .391.038.54.108h.001c.15.068.27.162.365.287l.002.002.002.002c.1.123.178.277.23.468.055.193.083.41.083.657 0 .303-.04.562-.115.777a1.43 1.43 0 01-.313.525l-.002.002a1.208 1.208 0 01-.47.309h-.003a1.93 1.93 0 01-.648.105c-.085 0-.174-.005-.268-.011-.037-.004-.074-.012-.11-.018v-3.14c.051-.014.087-.026.165-.04.125-.02.308-.033.541-.033z"/><path d="M75.548 3.418l-3.035 6.732h-.002c-.11.25-.21.458-.3.621-.089.16-.166.267-.206.309l-.05.055v.285h1.439v-.266l-.02-.029v-.002a.34.34 0 01-.012-.084c0-.133.025-.262.077-.395.058-.15.112-.29.164-.416l.002-.004.548-1.26c.175-.004.355-.007.563-.007h1.844c.272 0 .473.003.652.008l.582 1.306c.08.186.13.341.154.453v.006c.029.117.043.22.043.309 0 .02-.003.044-.006.074 0 .013-.003.024-.003.03l-.012.03v.247h1.805v-.277l-.043-.053s-.04-.053-.086-.127a5.995 5.995 0 01-.16-.272 12.29 12.29 0 01-.2-.365l-.002-.006c-.067-.138-.133-.28-.197-.426l-2.879-6.476zm.113 2.047l1.174 2.652-.227.004c-.187 0-.383.002-.587.006-.202 0-.41 0-.622.004h-.89zm6.999-1.953a6.48 6.48 0 00-.915.054l.002-.002c-.224.03-.4.047-.521.047h-.254a3.293 3.293 0 01-.2-.015h-.003l-.217-.022-.207-.02v.256l.007.026a2.2 2.2 0 01.053.248v.006c.02.098.036.228.049.387.014.154.024.342.031.562.007.216.01.472.01.766v3.39c0 .294-.003.55-.01.77a9.972 9.972 0 01-.031.558 3.82 3.82 0 01-.049.381v.006a2.204 2.204 0 01-.053.248l-.007.026v.236h1.627v-.236l-.006-.026a3.078 3.078 0 01-.059-.254 5.414 5.414 0 01-.045-.377v-.004a32.33 32.33 0 01-.031-.558v-.002c-.007-.22-.01-.475-.01-.768v-.68c.38.038.756.055 1.112-.01.424-.08.806-.23 1.138-.454a2.5 2.5 0 00.801-.885c.202-.369.299-.802.299-1.29 0-.365-.063-.697-.194-.991a2.11 2.11 0 00-.53-.752 2.301 2.301 0 00-.806-.465 2.988 2.988 0 00-.982-.156zm-.132.732c.212 0 .387.04.534.115h.003a.95.95 0 01.366.315l.002.002.002.002c.1.136.18.308.234.521v.002c.054.211.082.451.082.719 0 .389-.056.707-.158.959v.002c-.101.256-.24.451-.418.596a1.396 1.396 0 01-.643.283c-.21.036-.456.015-.71-.018V4.315c.025-.006.04-.012.07-.018l-.002.002c.068-.012.158-.025.265-.035h.006c.101-.013.224-.02.367-.02zm3.486-.67v.237l.006.025a2.2 2.2 0 01.053.248v.004l.002.002c.019.098.035.228.048.387.014.154.025.342.032.562.007.216.01.472.01.766v3.39c0 .294-.003.55-.01.77a9.872 9.872 0 01-.032.558 3.82 3.82 0 01-.048.381l-.002.002v.004a2.202 2.202 0 01-.053.248l-.006.026v.236h1.627v-.236l-.008-.026a3.124 3.124 0 01-.057-.248 5.473 5.473 0 01-.044-.383v-.004a32.33 32.33 0 01-.032-.558v-.002c-.006-.22-.01-.475-.01-.768V7.834c.13-.004.254-.01.413-.012.227-.003.467-.003.718 0h.002c.253 0 .51 0 .774.004h.004c.266 0 .52.003.762.006l.681.01h.004c.134 0 .228.002.332.004v1.35c0 .292-.005.549-.015.767v.002a9.97 9.97 0 01-.032.559v.004c-.01.154-.024.28-.043.376l-.002.002v.004a2.202 2.202 0 01-.052.248l-.006.026v.236h1.627v-.236l-.008-.026a3.124 3.124 0 01-.057-.248 5.508 5.508 0 01-.045-.386 10.347 10.347 0 01-.03-.559c-.008-.22-.01-.476-.01-.77v-3.39c0-.294.002-.55.01-.766.006-.22.017-.407.03-.562a5.5 5.5 0 01.045-.393c.02-.1.039-.184.057-.248l.008-.025v-.237H91.03v.237l.006.025a2.2 2.2 0 01.052.248v.004l.002.002c.019.096.033.225.043.383v.004c.014.155.025.343.032.562v.004c.01.215.015.47.015.762v1.106c-.114.004-.222.009-.363.013l-.678.02-.746.012-.758.01h-.719c-.159-.003-.29-.008-.425-.012V5.805c0-.292.003-.546.01-.762V5.04c.01-.218.02-.407.03-.563v-.004c.014-.158.03-.289.046-.389.02-.1.038-.184.056-.248l.008-.025v-.236zm7.559 0v.31l.084.057a1.823 1.823 0 01.289.246l.002.002.002.002c.063.06.132.135.205.221h.002v.002c.076.086.154.182.23.285l2.292 3.116v1.38c0 .293-.005.55-.016.768v.002a11.08 11.08 0 01-.031.559v.004c-.01.154-.026.28-.045.377v.005a2.191 2.191 0 01-.053.248l-.008.026v.236h1.63v-.236l-.009-.026a3.122 3.122 0 01-.056-.248c-.017-.1-.034-.23-.047-.386a10.577 10.577 0 01-.03-.559 24.67 24.67 0 01-.01-.77V7.71l2.131-3.004.002-.002c.145-.209.278-.371.395-.488v-.002h.002c.126-.13.226-.226.295-.285l.066-.057v-.297h-1.394v.19a.305.305 0 01-.03.1l-.002.003-.002.002a1.566 1.566 0 01-.101.205c-.047.08-.101.164-.158.252-.059.09-.116.178-.174.264l-1.522 2.22-1.549-2.12-.002-.003a2.855 2.855 0 01-.343-.591v-.002l-.002-.002a1.502 1.502 0 01-.086-.329v-.189z"/></svg>